<svg 
xmlns="http://www.w3.org/2000/svg" 
xmlns:xlink="http://www.w3.org/1999/xlink" 
preserveAspectRatio="" 
viewBox="0 0 7008 4434"
>

<g transform="matrix(95.500798103478886 0 0 -95.500798103478886 3503.999755859375 2349.5765416685531)">
<g>
        <path d="M-6.6814008168876171 5.7311231978237629L-4.3174177408218384 5.7311231978237629" stroke="#000000" stroke-width="0.013532316684867408" stroke-linecap="round" stroke-linejoin="round" fill="none"/>
        <path d="M-6.6814008168876171 7.7311231978237629L-4.3174177408218384 7.7311231978237629" stroke="#000000" stroke-width="0.013532316684867408" stroke-linecap="round" stroke-linejoin="round" fill="none"/>
        <path d="M-6.6814008168876171 7.7311231978237629L-6.7511572875082493 7.7286872752010822L-6.8205739222466946 7.721391249448061L-6.8893125019967556 7.7092708237469196L-6.9570381753146648 7.6923848874866962L-7.0234209708869457 7.6708158142864704L-7.0881374590098858 7.6446686275303364L-7.150872390717268 7.6140707619488239L-7.2113200835883617 7.5791712887585163L-7.2691860608756542 7.5401402004063129L-7.3241884522140026 7.4971676357090473L-7.376059215515852 7.4504629857838154L-7.4245456270873547 7.4002538211643696L-7.4694115929305553 7.3467846997082233L-7.5104383639991283 7.2903160937130451L-7.5474262051284313 7.2311231978237629L-7.5801948718726635 7.1694943495094776L-7.6085846833884716 7.1057297773659229L-7.6324573568999767 7.0401402004063129L-7.6516965441405773 6.9730450995266438L-7.6662085466086864 6.904771376401186L-7.6759227328002453 6.8356516622006893L-7.6807916574180126 6.7660226933658123L-7.6807916574180126 6.6962237022817135L-7.6759227328002453 6.6265947334468365L-7.6662085466086864 6.5574750192463398L-7.6516965441405773 6.489201296120882L-7.6324573568999767 6.4221061952412128L-7.6085846833884716 6.3565166182816029L-7.5801948718726635 6.2927520461380482L-7.5474262051284313 6.2311231978237629L-7.5104383639991283 6.1719303019344807L-7.4694115929305553 6.1154616959393024L-7.4245456270873547 6.0619925744831562L-7.376059215515852 6.0117834098637104L-7.3241884522140026 5.9650787599384785L-7.2691860608756542 5.9221061952412128L-7.2113200835883617 5.8830751068890095L-7.150872390717268 5.8481756336987019L-7.0881374590098858 5.8175777681171894L-7.0234209708869457 5.7914305813610554L-6.9570381753146648 5.7698615081608295L-6.8893125019967556 5.7529755719006062L-6.8205739222466946 5.7408551461994648L-6.6814008168876171 5.7311231978237629" stroke="#000000" stroke-width="0.013532316684867408" stroke-linecap="round" stroke-linejoin="round" fill="none"/>
        <path d="M12.003925628960133 16.287891194224358L10.390453971922398 14.024064876139164" stroke="#000000" stroke-width="0.013532316684867408" stroke-linecap="round" stroke-linejoin="round" fill="none"/>
        <path d="M10.390453971922398 14.024064876139164L0 14.024064876139164" stroke="#000000" stroke-width="0.013532316684867408" stroke-linecap="round" stroke-linejoin="round" fill="none"/>
        <path d="M-23.869734544454268 6.999999999999992L-25 8.6499999999999968" stroke="#000000" stroke-width="0.013532316684867408" stroke-linecap="round" stroke-linejoin="round" fill="none"/>
        <path d="M-10.390453971922398 14.024064876139164L0 14.024064876139164" stroke="#000000" stroke-width="0.013532316684867408" stroke-linecap="round" stroke-linejoin="round" fill="none"/>
        <path d="M-23.650000000000009 10L-21.999999999999996 8.8697345444542641" stroke="#000000" stroke-width="0.013532316684867408" stroke-linecap="round" stroke-linejoin="round" fill="none"/>
        <path d="M-24.999999999999993 5.3499999999999881L-23.869734544454257 7.0000000000000018" stroke="#000000" stroke-width="0.013532316684867408" stroke-linecap="round" stroke-linejoin="round" fill="none"/>
        <path d="M27.392944146062099 17.668624881421657L27.071317639559407 19.699294724012667" stroke="#000000" stroke-width="0.013532316684867408" stroke-linecap="round" stroke-linejoin="round" fill="none"/>
        <path d="M27.392943859100338 17.668624877929688L26.635601997375485 18.018828392028809L25.855675458908078 18.315350532531738L25.056964397430416 18.556745529174805L24.243359804153439 18.741836547851562L23.418826103210446 18.869723320007324L22.587379813194271 18.939781188964844L21.753071963787075 18.95167064666748L20.919967055320736 18.905331611633301L20.092123985290524 18.800992012023926L19.273576021194454 18.639158248901367L18.468310832977291 18.420619964599609L17.680251598358151 18.146442413330078L16.913237571716305 17.817959785461426L16.607055187225338 17.668623924255371" stroke="#000000" stroke-width="0.013532316684867408" stroke-linecap="round" stroke-linejoin="round" fill="none"/>
        <path d="M-23.650000000000009 12.999999999999998L-20.350000000000009 12.999999999999998" stroke="#000000" stroke-width="0.013532316684867408" stroke-linecap="round" stroke-linejoin="round" fill="none"/>
        <path d="M16.607055853937918 17.668624881421671L16.915771252586122 19.617777197240265" stroke="#000000" stroke-width="0.013532316684867408" stroke-linecap="round" stroke-linejoin="round" fill="none"/>
        <path d="M-20.350000000000005 1.0000000000000009L-20.350000000000005 4" stroke="#000000" stroke-width="0.013532316684867408" stroke-linecap="round" stroke-linejoin="round" fill="none"/>
        <path d="M27.07131763605647 19.699295130707313L26.172222577615308 20.01543149087577L25.253265344186353 20.268080798126746L24.318922721429395 20.456011858917762L23.37374683527522 20.578307238556434L22.422342233939695 20.634373751617957L21.469344281240033 20.623936739899207L20.519395791574048 20.54704770181327L19.577125035806226 20.404080477692176L18.647122108026075 20.195732203461219L17.733918630166578 19.923017588593055L16.915771924539136 19.617777911163856" stroke="#000000" stroke-width="0.013532316684867408" stroke-linecap="round" stroke-linejoin="round" fill="none"/>
        <path d="M-20.350000000000009 12.999999999999998L-20.350000000000009 9.9999999999999982" stroke="#000000" stroke-width="0.013532316684867408" stroke-linecap="round" stroke-linejoin="round" fill="none"/>
        <path d="M-27.999999999999996 5.3499999999999934L-27.999999999999996 8.649999999999995" stroke="#000000" stroke-width="0.013532316684867408" stroke-linecap="round" stroke-linejoin="round" fill="none"/>
        <path d="M17.0627002378497 20.545450300497855L17.600000000000012 23.937827487608914" stroke="#000000" stroke-width="0.013532316684867408" stroke-linecap="round" stroke-linejoin="round" fill="none"/>
        <path d="M26.399999141693119 23.937827499173142L25.167439699172977 24.202088744900681L23.919448971748356 24.379725845120408L22.662106931209568 24.469876678250291L21.401539087295536 24.472098739407517L20.143886923789982 24.386382491848924L18.895277500152591 24.213147552273728L17.661794185638431 23.953233154080369L17.599998474121097 23.937827499173142" stroke="#000000" stroke-width="0.013532316684867408" stroke-linecap="round" stroke-linejoin="round" fill="none"/>
        <path d="M-16 8.6500000000000057L-16 5.3500000000000041" stroke="#000000" stroke-width="0.013532316684867408" stroke-linecap="round" stroke-linejoin="round" fill="none"/>
        <path d="M6.6814008168876171 5.7311231978237629L4.3174177408218384 5.7311231978237629" stroke="#000000" stroke-width="0.013532316684867408" stroke-linecap="round" stroke-linejoin="round" fill="none"/>
        <path d="M-16 5.349999999999989L-19.000000000000004 5.3499999999999899" stroke="#000000" stroke-width="0.013532316684867408" stroke-linecap="round" stroke-linejoin="round" fill="none"/>
        <path d="M26.937299762150314 20.545450300497865L26.400000000000006 23.93782748760891" stroke="#000000" stroke-width="0.013532316684867408" stroke-linecap="round" stroke-linejoin="round" fill="none"/>
        <path d="M6.6814008168876171 7.7311231978237629L6.7511572875082493 7.7286872752010822L6.8205739222466946 7.721391249448061L6.8893125019967556 7.7092708237469196L6.9570381753146648 7.6923848874866962L7.0234209708869457 7.6708158142864704L7.0881374590098858 7.6446686275303364L7.150872390717268 7.6140707619488239L7.2113200835883617 7.5791712887585163L7.2691860608756542 7.5401402004063129L7.3241884522140026 7.4971676357090473L7.376059215515852 7.4504629857838154L7.4245456270873547 7.4002538211643696L7.4694115929305553 7.3467846997082233L7.5104383639991283 7.2903160937130451L7.5474262051284313 7.2311231978237629L7.5801948718726635 7.1694943495094776L7.6085846833884716 7.1057297773659229L7.6324573568999767 7.0401402004063129L7.6516965441405773 6.9730450995266438L7.6662085466086864 6.904771376401186L7.6759227328002453 6.8356516622006893L7.6807916574180126 6.7660226933658123L7.6807916574180126 6.6962237022817135L7.6759227328002453 6.6265947334468365L7.6662085466086864 6.5574750192463398L7.6516965441405773 6.489201296120882L7.6324573568999767 6.4221061952412128L7.6085846833884716 6.3565166182816029L7.5801948718726635 6.2927520461380482L7.5474262051284313 6.2311231978237629L7.5104383639991283 6.1719303019344807L7.4694115929305553 6.1154616959393024L7.4245456270873547 6.0619925744831562L7.376059215515852 6.0117834098637104L7.3241884522140026 5.9650787599384785L7.2691860608756542 5.9221061952412128L7.2113200835883617 5.8830751068890095L7.150872390717268 5.8481756336987019L7.0881374590098858 5.8175777681171894L7.0234209708869457 5.7914305813610554L6.9570381753146648 5.7698615081608295L6.8893125019967556 5.7529755719006062L6.8205739222466946 5.7408551461994648L6.6814008168876171 5.7311231978237629" stroke="#000000" stroke-width="0.013532316684867408" stroke-linecap="round" stroke-linejoin="round" fill="none"/>
        <path d="M-20.349999999999994 1.0000000000000009L-23.650000000000002 1.0000000000000009" stroke="#000000" stroke-width="0.013532316684867408" stroke-linecap="round" stroke-linejoin="round" fill="none"/>
        <path d="M6.6814008168876171 7.7311231978237629L4.3174177408218384 7.7311231978237629" stroke="#000000" stroke-width="0.013532316684867408" stroke-linecap="round" stroke-linejoin="round" fill="none"/>
        <path d="M-23.650000000000009 12.999999999999998L-23.650000000000009 9.9999999999999982" stroke="#000000" stroke-width="0.013532316684867408" stroke-linecap="round" stroke-linejoin="round" fill="none"/>
        <path d="M-27.392944146062099 17.668624881421657L-27.071317639559407 19.699294724012667" stroke="#000000" stroke-width="0.013532316684867408" stroke-linecap="round" stroke-linejoin="round" fill="none"/>
        <path d="M-26.937299762150314 20.545450300497865L-26.400000000000006 23.93782748760891" stroke="#000000" stroke-width="0.013532316684867408" stroke-linecap="round" stroke-linejoin="round" fill="none"/>
        <path d="M22.414737626380305 -17.789473425251785L15.39931570640139 -4.9189521728306556" stroke="#000000" stroke-width="0.013532316684867408" stroke-linecap="round" stroke-linejoin="round" fill="none"/>
        <path d="M36.427891376107439 -13.162488696568294L33.389433443364751 8.5908506652619483" stroke="#000000" stroke-width="0.013532316684867408" stroke-linecap="round" stroke-linejoin="round" fill="none"/>
        <path d="M-16.607056140899655 17.668624877929688L-17.364398002624508 18.018828392028809L-18.144324541091915 18.315350532531738L-18.943035602569577 18.556745529174805L-19.756640195846554 18.741836547851562L-20.581173896789547 18.869723320007324L-21.412620186805722 18.939781188964844L-22.246928036212918 18.95167064666748L-23.080032944679257 18.905331611633301L-23.907876014709469 18.800992012023926L-24.726423978805538 18.639158248901367L-25.531689167022702 18.420619964599609L-26.319748401641842 18.146442413330078L-27.086762428283688 17.817959785461426L-27.392944812774655 17.668623924255371" stroke="#000000" stroke-width="0.013532316684867408" stroke-linecap="round" stroke-linejoin="round" fill="none"/>
        <path d="M29.307824286327367 6.9981540683679357L29.301734360561376 7.1725452486448065L29.28349438558579 7.3460868243150488L29.253193291530614 7.5179332736902014L29.210978421077733 7.6872474793367163L29.157055767879491 7.8532044533662573L29.091687830791479 8.0149957183770901L29.015193375453954 8.1718329433374173L28.927944573268896 8.3229521755151517L28.83036676298142 8.4676171783380276L28.722935351238256 8.6051230672769314L28.606173786029821 8.7348000053338772L28.480650814876562 8.8560161832742459L28.346977981433874 8.9681809190683133L28.205806526050573 9.0707479957513577L28.057824286327367 9.1632176879815823L27.90375212083817 9.2451392654351956L27.744340750083929 9.3161136154107815L27.58036676298142 9.375795269387222L27.412629040584569 9.423893356698013L27.241944732770925 9.4601735118798977L27.069145443544393 9.4844588283471829L26.895073028907781 9.4966310504846341L26.720575543746953 9.4966310504846341L26.546503129110341 9.4844588283471829L26.37370383988381 9.4601735118798977L26.203019532070165 9.423893356698013L26.035281809673315 9.375795269387222L25.871307822570806 9.3161136154107815L25.711896451816564 9.2451392654351956L25.557824286327367 9.1632176879815823L25.409842046604162 9.0707479957513577L25.268670591220861 8.9681809190683133L25.134997757778173 8.8560161832742459L25.009474786624914 8.7348000053338772L24.892713221416479 8.6051230672769314L24.785281809673315 8.4676171783380276L24.687703999385839 8.3229521755151517L24.60045519720078 8.1718329433374173L24.523960741863256 8.0149957183770901L24.458592804775243 7.8532044533662573L24.404670151577001 7.6872474793367163L24.36245528112412 7.5179332736902014L24.332154187068944 7.3460868243150488L24.313914212093358 7.1725452486448065L24.307824286327367 6.9981540683679357L24.313914212093358 6.823762888091065L24.332154187068944 6.6502213124208227L24.36245528112412 6.4783748630456701L24.404670151577001 6.3090606573991552L24.458592804775243 6.1431036833696142L24.523960741863256 5.9813124183587805L24.60045519720078 5.8244751933984533L24.687703999385839 5.6733559612207189L24.785281809673315 5.528690958397843L24.892713221416479 5.3911850694589392L25.009474786624914 5.2615081314019934L25.134997757778173 5.1402919534616247L25.268670591220861 5.0281272176675573L25.409842046604162 4.9255601409845129L25.557824286327367 4.8330904487542883L25.711896451816564 4.751168871300675L25.871307822570806 4.6801945213250891L26.035281809673315 4.6205128673486486L26.203019532070165 4.5724147800378576L26.37370383988381 4.5361346248559729L26.546503129110341 4.5118493083886877L26.720575543746953 4.4996770862512365L26.895073028907781 4.4996770862512365L27.069145443544393 4.5118493083886877L27.241944732770925 4.5361346248559729L27.412629040584569 4.5724147800378576L27.58036676298142 4.6205128673486486L27.744340750083929 4.6801945213250891L27.90375212083817 4.751168871300675L28.057824286327367 4.8330904487542883L28.205806526050573 4.9255601409845129L28.346977981433874 5.0281272176675573L28.480650814876562 5.1402919534616247L28.606173786029821 5.2615081314019934L28.722935351238256 5.3911850694589392L28.83036676298142 5.528690958397843L28.927944573268896 5.6733559612207189L29.015193375453954 5.8244751933984533L29.091687830791479 5.9813124183587805L29.157055767879491 6.1431036833696142L29.210978421077733 6.3090606573991552L29.253193291530614 6.4783748630456701L29.28349438558579 6.6502213124208227L29.307824286327367 6.9981540683679349" stroke="#000000" stroke-width="0.013532316684867408" stroke-linecap="round" stroke-linejoin="round" fill="none"/>
        <path d="M13.268821885478065 -1.0103396455846907L11.902597693783138 1.4961407479472666" stroke="#000000" stroke-width="0.013532316684867408" stroke-linecap="round" stroke-linejoin="round" fill="none"/>
        <path d="M-17.0627002378497 20.545450300497855L-17.600000000000012 23.937827487608914" stroke="#000000" stroke-width="0.013532316684867408" stroke-linecap="round" stroke-linejoin="round" fill="none"/>
        <path d="M19.704132423063239 6.9981540683679366L19.698042497297248 7.1725452486448074L19.679802522321662 7.3460868243150497L19.649501428266486 7.5179332736902023L19.607286557813605 7.6872474793367171L19.553363904615363 7.8532044533662582L19.48799596752735 8.0149957183770919L19.411501512189826 8.1718329433374191L19.324252710004767 8.3229521755151534L19.226674899717292 8.4676171783380294L19.119243487974128 8.6051230672769332L19.002481922765693 8.734800005333879L18.876958951612433 8.8560161832742477L18.743286118169745 8.968180919068315L18.602114662786445 9.0707479957513595L18.454132423063239 9.1632176879815841L18.300060257574042 9.2451392654351974L18.1406488868198 9.3161136154107833L17.976674899717292 9.3757952693872237L17.808937177320441 9.4238933566980148L17.638252869506797 9.4601735118798995L17.465453580280265 9.4844588283471847L17.291381165643653 9.4966310504846358L17.116883680482825 9.4966310504846358L16.942811265846213 9.4844588283471847L16.770011976619681 9.4601735118798995L16.599327668806037 9.4238933566980148L16.431589946409186 9.3757952693872237L16.267615959306678 9.3161136154107833L16.108204588552436 9.2451392654351974L15.954132423063239 9.1632176879815841L15.806150183340034 9.0707479957513595L15.664978727956733 8.968180919068315L15.531305894514045 8.8560161832742477L15.405782923360785 8.734800005333879L15.28902135815235 8.6051230672769332L15.181589946409186 8.4676171783380294L15.084012136121711 8.3229521755151534L14.996763333936652 8.1718329433374191L14.920268878599128 8.0149957183770919L14.854900941511115 7.8532044533662582L14.800978288312873 7.6872474793367171L14.758763417859992 7.5179332736902023L14.728462323804816 7.3460868243150497L14.71022234882923 7.1725452486448074L14.704132423063239 6.9981540683679366L14.71022234882923 6.8237628880910659L14.728462323804816 6.6502213124208236L14.758763417859992 6.478374863045671L14.800978288312873 6.3090606573991561L14.854900941511115 6.1431036833696151L14.920268878599128 5.9813124183587814L14.996763333936652 5.8244751933984542L15.084012136121711 5.6733559612207198L15.181589946409186 5.5286909583978439L15.28902135815235 5.39118506945894L15.405782923360785 5.2615081314019942L15.531305894514045 5.1402919534616256L15.664978727956733 5.0281272176675582L15.806150183340034 4.9255601409845138L15.954132423063239 4.8330904487542892L16.108204588552436 4.7511688713006759L16.267615959306678 4.68019452132509L16.431589946409186 4.6205128673486495L16.599327668806037 4.5724147800378585L16.770011976619681 4.5361346248559737L16.942811265846213 4.5118493083886886L17.116883680482825 4.4996770862512374L17.291381165643653 4.4996770862512374L17.465453580280265 4.5118493083886886L17.638252869506797 4.5361346248559737L17.808937177320441 4.5724147800378585L17.976674899717292 4.6205128673486495L18.1406488868198 4.68019452132509L18.300060257574042 4.7511688713006759L18.454132423063239 4.8330904487542892L18.602114662786445 4.9255601409845138L18.743286118169745 5.0281272176675582L18.876958951612433 5.1402919534616256L19.002481922765693 5.2615081314019942L19.119243487974128 5.39118506945894L19.226674899717292 5.5286909583978439L19.324252710004767 5.6733559612207198L19.411501512189826 5.8244751933984542L19.48799596752735 5.9813124183587814L19.553363904615363 6.1431036833696151L19.607286557813605 6.3090606573991561L19.649501428266486 6.478374863045671L19.679802522321662 6.6502213124208236L19.704132423063239 6.9981540683679357" stroke="#000000" stroke-width="0.013532316684867408" stroke-linecap="round" stroke-linejoin="round" fill="none"/>
        <path d="M0 -7.5538535602390766L-6.535786423814046 -7.5538535602390766" stroke="#000000" stroke-width="0.013532316684867408" stroke-linecap="round" stroke-linejoin="round" fill="none"/>
        <path d="M-12.003925628960133 16.287891194224358L-15.218770232159233 16.287891194224358" stroke="#000000" stroke-width="0.013532316684867408" stroke-linecap="round" stroke-linejoin="round" fill="none"/>
        <path d="M-13.268821885478067 -1.0103396455846907L-11.902597693783138 1.4961407479472666" stroke="#000000" stroke-width="0.013532316684867408" stroke-linecap="round" stroke-linejoin="round" fill="none"/>
        <path d="M-17.062699794769308 20.545450316200192L-18.022727727890036 20.856753454933102L-19.002132654190085 21.100330458412106L-19.996142625808737 21.274994955787594L-20.999915242195151 21.379895315895016L-22.008560157381019 21.414519415626462L-23.017163395881674 21.378700361976559L-24.020811080932639 21.272612677345212L-25.014613628387472 21.096771345863278L-25.993729352951071 20.852034674415524L-26.937300205230734 20.545450316200192" stroke="#000000" stroke-width="0.013532316684867408" stroke-linecap="round" stroke-linejoin="round" fill="none"/>
        <path d="M-16.915771924539136 19.617777911163856L-17.809676133676099 19.948307124115516L-18.724459134622144 20.215675440765907L-19.655664645715284 20.418580141998817L-20.598755680604505 20.556033221222449L-21.549137674851941 20.627365199066688L-22.502180360837507 20.632227030731727L-23.453240715547132 20.570596781708289L-24.397685252709913 20.442774859406043L-25.330912553353834 20.249382105804969L-26.248376332803296 19.991361704803992L-27.071319066567945 19.699294177032996" stroke="#000000" stroke-width="0.013532316684867408" stroke-linecap="round" stroke-linejoin="round" fill="none"/>
        <path d="M-12.003925628960133 16.287891194224358L-10.390453971922398 14.024064876139164" stroke="#000000" stroke-width="0.013532316684867408" stroke-linecap="round" stroke-linejoin="round" fill="none"/>
        <path d="M-10.499999999999996 7L-10.528013229370114 7.8021994233131409L-10.611917495727536 8.6004906892776489L-10.751302719116207 9.3909845352172852L-10.945490837097164 10.169829607009888L-11.193534851074215 10.933231592178345L-11.494227409362789 11.677471160888672L-11.846102714538571 12.398922920227051L-12.247447013854977 13.094071388244629L-12.696304321289059 13.759530544281006L-13.190488815307614 14.392057418823242L-13.727592468261715 14.988571166992188L-14.304997920989987 15.546165466308594L-14.919893264770504 16.06212329864502L-15.569281578063961 16.533931732177734L-16.249999999999996 16.959292411804199L-16.958731651306149 17.33613109588623L-17.692024230957028 17.662613868713379L-18.446304559707638 17.937150001525879L-19.217898130416867 18.158400535583496L-20.003045916557308 18.325288772583008L-20.797922730445858 18.437002182006836L-21.598655790090557 18.49299430847168L-22.401344209909436 18.49299430847168L-23.202077269554135 18.437002182006836L-23.996954083442684 18.325288772583008L-24.782101869583126 18.158400535583496L-25.553695440292355 17.937150001525879L-26.307975769042965 17.662613868713379L-27.041268348693844 17.33613109588623L-27.749999999999996 16.959292411804199L-28.430718421936032 16.533931732177734L-29.080106735229489 16.06212329864502L-29.695002079010006 15.546165466308594L-30.272407531738278 14.988571166992188L-30.809511184692379 14.392057418823242L-31.303695678710934 13.759530544281006L-31.752552986145016 13.094071388244629L-32.153897285461426 12.398922920227051L-32.505772590637207 11.677471160888672L-32.806465148925781 10.933231592178345L-33.054509162902832 10.169829607009888L-33.248697280883789 9.3909845352172852L-33.388082504272461 8.6004906892776489L-33.471986770629883 7.8021994233131409L-33.5 7.0000000000000018L-33.471986770629883 6.1978005766868591L-33.388082504272461 5.3995093107223511L-33.248697280883789 4.6090154647827148L-33.054509162902832 3.8301703929901123L-32.806465148925781 3.0667684078216553L-32.505772590637207 2.3225288391113281L-32.153897285461426 1.6010770797729492L-31.752552986145016 0.90592861175537109L-31.303695678710934 0.24046945571899414L-30.809511184692379 -0.39205741882324219L-30.272407531738278 -0.9885711669921875L-29.695002079010006 -1.5461654663085938L-29.080106735229489 -2.0621232986450195L-28.430718421936032 -2.5339317321777344L-27.749999999999996 -2.9592924118041992L-27.041268348693844 -3.3361310958862305L-26.307975769042965 -3.6626138687133789L-25.553695440292355 -3.9371500015258789L-24.782101869583126 -4.1584005355834961L-23.996954083442684 -4.3252887725830078L-23.202077269554135 -4.4370021820068359L-22.401344209909436 -4.4929943084716797L-21.598655790090557 -4.4929943084716797L-20.797922730445858 -4.4370021820068359L-20.003045916557308 -4.3252887725830078L-19.217898130416867 -4.1584005355834961L-18.446304559707638 -3.9371500015258789L-17.692024230957028 -3.6626138687133789L-16.958731651306149 -3.3361310958862305L-16.249999999999996 -2.9592924118041992L-15.569281578063961 -2.5339317321777344L-14.919893264770504 -2.0621232986450195L-14.304997920989987 -1.5461654663085938L-13.727592468261715 -0.9885711669921875L-13.190488815307614 -0.39205741882324219L-12.696304321289059 0.24046945571899414L-12.247447013854977 0.90592861175537109L-11.846102714538571 1.6010770797729492L-11.494227409362789 2.3225288391113281L-11.193534851074215 3.0667684078216553L-10.945490837097164 3.8301703929901123L-10.751302719116207 4.6090154647827148L-10.611917495727536 5.3995093107223511L-10.499999999999996 6.9999999999999973" stroke="#000000" stroke-width="0.013532316684867408" stroke-linecap="round" stroke-linejoin="round" fill="none"/>
        <path d="M-21.999999999999996 5.1302654555457323L-23.649999999999999 3.9999999999999982" stroke="#000000" stroke-width="0.013532316684867408" stroke-linecap="round" stroke-linejoin="round" fill="none"/>
        <path d="M-19 8.6500000000000057L-20.130265455545736 6.9999999999999956" stroke="#000000" stroke-width="0.013532316684867408" stroke-linecap="round" stroke-linejoin="round" fill="none"/>
        <path d="M-22.000000000000011 8.8697345444542659L-20.350000000000009 9.9999999999999982" stroke="#000000" stroke-width="0.013532316684867408" stroke-linecap="round" stroke-linejoin="round" fill="none"/>
        <path d="M-20.349999999999994 4.0000000000000053L-22.000000000000004 5.1302654555457412" stroke="#000000" stroke-width="0.013532316684867408" stroke-linecap="round" stroke-linejoin="round" fill="none"/>
        <path d="M24.505978354695298 2.1963081367358734L24.499888428929307 2.3706993170127442L24.481648453953721 2.5442408926829865L24.451347359898545 2.7160873420581391L24.409132489445664 2.885401547704654L24.355209836247422 3.051358521734195L24.289841899159409 3.2131497867450287L24.213347443821885 3.3699870117053559L24.126098641636826 3.5211062438830902L24.028520831349351 3.6657712467059662L23.921089419606187 3.80327713564487L23.804327854397751 3.9329540737018158L23.678804883244492 4.0541702516421845L23.545132049801804 4.1663349874362519L23.403960594418503 4.2689020641192963L23.255978354695298 4.3613717563495209L23.101906189206101 4.4432933338031342L22.942494818451859 4.5142676837787201L22.778520831349351 4.5739493377551605L22.6107831089525 4.6220474250659516L22.440098801138856 4.6583275802478363L22.267299511912324 4.6826128967151215L22.093227097275712 4.6947851188525727L21.918729612114884 4.6947851188525727L21.744657197478272 4.6826128967151215L21.57185790825174 4.6583275802478363L21.401173600438096 4.6220474250659516L21.233435878041245 4.5739493377551605L21.069461890938737 4.5142676837787201L20.910050520184495 4.4432933338031342L20.755978354695298 4.3613717563495209L20.607996114972092 4.2689020641192963L20.466824659588791 4.1663349874362519L20.333151826146104 4.0541702516421845L20.207628854992844 3.9329540737018158L20.090867289784409 3.80327713564487L19.983435878041245 3.6657712467059662L19.88585806775377 3.5211062438830902L19.798609265568711 3.3699870117053559L19.722114810231187 3.2131497867450287L19.656746873143174 3.051358521734195L19.602824219944932 2.885401547704654L19.560609349492051 2.7160873420581391L19.530308255436875 2.5442408926829865L19.512068280461289 2.3706993170127442L19.505978354695298 2.1963081367358739L19.512068280461289 2.0219169564590027L19.530308255436875 1.8483753807887604L19.560609349492051 1.6765289314136078L19.602824219944932 1.5072147257670929L19.656746873143174 1.3412577517375519L19.722114810231187 1.1794664867267182L19.798609265568711 1.022629261766391L19.88585806775377 0.87151002958865664L19.983435878041245 0.72684502676578067L20.090867289784409 0.58933913782687686L20.207628854992844 0.45966219976993106L20.333151826146104 0.3384460218295624L20.466824659588791 0.22628128603549502L20.607996114972092 0.12371420935245059L20.755978354695298 0.031244517122225979L20.910050520184495 -0.050677060331387302L21.069461890938737 -0.12165141030697324L21.233435878041245 -0.18133306428341367L21.401173600438096 -0.22943115159420469L21.57185790825174 -0.26571130677608945L21.744657197478272 -0.28999662324337461L21.918729612114884 -0.30216884538082578L22.093227097275712 -0.30216884538082578L22.267299511912324 -0.28999662324337461L22.440098801138856 -0.26571130677608945L22.6107831089525 -0.22943115159420469L22.778520831349351 -0.18133306428341367L22.942494818451859 -0.12165141030697324L23.101906189206101 -0.050677060331387302L23.255978354695298 0.031244517122225979L23.403960594418503 0.12371420935245059L23.545132049801804 0.22628128603549502L23.678804883244492 0.3384460218295624L23.804327854397751 0.45966219976993106L23.921089419606187 0.58933913782687686L24.028520831349351 0.72684502676578067L24.126098641636826 0.87151002958865664L24.213347443821885 1.022629261766391L24.289841899159409 1.1794664867267182L24.355209836247422 1.3412577517375519L24.409132489445664 1.5072147257670929L24.451347359898545 1.6765289314136078L24.481648453953721 1.8483753807887604L24.505978354695298 2.196308136735873" stroke="#000000" stroke-width="0.013532316684867408" stroke-linecap="round" stroke-linejoin="round" fill="none"/>
        <path d="M-20.130265455545736 7.0000000000000062L-19 5.3500000000000059" stroke="#000000" stroke-width="0.013532316684867408" stroke-linecap="round" stroke-linejoin="round" fill="none"/>
        <path d="M-17.600000858306888 23.937827499173142L-18.83256030082703 24.202088744900681L-20.080551028251652 24.379725845120408L-21.337893068790439 24.469876678250291L-22.598460912704471 24.472098739407517L-23.856113076210026 24.386382491848924L-25.104722499847416 24.213147552273728L-26.338205814361576 23.953233154080369L-26.40000152587891 23.937827499173142" stroke="#000000" stroke-width="0.013532316684867408" stroke-linecap="round" stroke-linejoin="round" fill="none"/>
        <path d="M36.427891254425042 -13.162488770484924L36.48217058181762 -13.68315954208374L36.499997138977044 -14.206348392926156L36.481284618377678 -14.729506266117095L36.426124095916741 -15.250084471702575L36.334784507751458 -15.765546751022338L36.207710266113274 -16.273381900787353L36.045520782470696 -16.771115732192992L35.849006175994866 -17.256323289871215L35.619124412536614 -17.726640653610229L35.356994152069085 -18.179777097702026L35.063893795013421 -18.613524150848388L34.741250514984124 -19.025768470764159L34.39063644409179 -19.414502811431884L34.013759613037102 -19.777832221984863L33.61245679855346 -20.113987159729003L33.188682079315178 -20.421329689025878L32.744500637054436 -20.69836254119873L32.282076358795159 -20.943735790252685L31.803662061691277 -21.156254482269286L31.311588764190667 -21.334882926940917L30.808253526687615 -21.478751373291015L30.29610872268676 -21.587157917022704L29.777649343013756 -21.659575176239013L29.255401343107216 -21.69565029144287L28.73190909624099 -21.695206832885741L28.209722936153405 -21.658248138427734L27.691386938095086 -21.584953022003173L27.179426431655877 -21.47567958831787L26.676335573196404 -21.330959510803222L26.184565305709832 -21.15149803161621L25.706511497497551 -20.93816967010498L25.244503259658806 -20.692013931274413L24.800791263580315 -20.414229583740234L24.377538681030266 -20.106170368194579L23.976805210113518 -19.769336891174316L23.600543975830071 -19.40536994934082L23.250588417053216 -19.016042900085449L22.928643703460686 -18.603252601623534L22.636277675628655 -18.16900987625122L22.414738178253167 -17.789474201202392" stroke="#000000" stroke-width="0.013532316684867408" stroke-linecap="round" stroke-linejoin="round" fill="none"/>
        <path d="M-27.999999999999996 5.3500000000000068L-25 5.3500000000000059" stroke="#000000" stroke-width="0.013532316684867408" stroke-linecap="round" stroke-linejoin="round" fill="none"/>
        <path d="M2.2999999523162842 -0L2.2943973541259766 0.16043989360332489L2.2776165008544922 0.32009813189506531L2.249739408493042 0.4781968891620636L2.2109017372131348 0.63396590948104858L2.1612930297851562 0.78664630651473999L2.1011545658111572 0.93549424409866333L2.0307793617248535 1.0797845125198364L1.9505106210708618 1.2188142538070679L1.86073899269104 1.3519060611724854L1.7619022130966187 1.4784114360809326L1.6544815301895142 1.5977141857147217L1.539000391960144 1.7092330455780029L1.4160213470458984 1.8124246597290039L1.2861436605453491 1.906786322593689L1.1499999761581421 1.9918583631515503L1.0082535743713379 2.0672261714935303L0.86159515380859375 2.1325228214263916L0.71073907613754272 2.1874299049377441L0.55642032623291016 2.231680154800415L0.39939078688621521 2.2650578022003174L0.24041545391082764 2.2874002456665039L0.080268837511539459 2.2985987663269043L-0.080268837511539459 2.2985987663269043L-0.24041545391082764 2.2874002456665039L-0.39939078688621521 2.2650578022003174L-0.55642032623291016 2.231680154800415L-0.71073907613754272 2.1874299049377441L-0.86159515380859375 2.1325228214263916L-1.0082535743713379 2.0672261714935303L-1.1499999761581421 1.9918583631515503L-1.2861436605453491 1.906786322593689L-1.4160213470458984 1.8124246597290039L-1.539000391960144 1.7092330455780029L-1.6544815301895142 1.5977141857147217L-1.7619022130966187 1.4784114360809326L-1.86073899269104 1.3519060611724854L-1.9505106210708618 1.2188142538070679L-2.0307793617248535 1.0797845125198364L-2.1011545658111572 0.93549424409866333L-2.1612930297851562 0.78664630651473999L-2.2109017372131348 0.63396590948104858L-2.249739408493042 0.4781968891620636L-2.2776165008544922 0.32009813189506531L-2.2943973541259766 0.16043989360332489L-2.2999999523162842 2.8166876285969881E-16L-2.2943973541259766 -0.16043989360332489L-2.2776165008544922 -0.32009813189506531L-2.249739408493042 -0.4781968891620636L-2.2109017372131348 -0.63396590948104858L-2.1612930297851562 -0.78664630651473999L-2.1011545658111572 -0.93549424409866333L-2.0307793617248535 -1.0797845125198364L-1.9505106210708618 -1.2188142538070679L-1.86073899269104 -1.3519060611724854L-1.7619022130966187 -1.4784114360809326L-1.6544815301895142 -1.5977141857147217L-1.539000391960144 -1.7092330455780029L-1.4160213470458984 -1.8124246597290039L-1.2861436605453491 -1.906786322593689L-1.1499999761581421 -1.9918583631515503L-1.0082535743713379 -2.0672261714935303L-0.86159515380859375 -2.1325228214263916L-0.71073907613754272 -2.1874299049377441L-0.55642032623291016 -2.231680154800415L-0.39939078688621521 -2.2650578022003174L-0.24041545391082764 -2.2874002456665039L-0.080268837511539459 -2.2985987663269043L0.080268837511539459 -2.2985987663269043L0.24041545391082764 -2.2874002456665039L0.39939078688621521 -2.2650578022003174L0.55642032623291016 -2.231680154800415L0.71073907613754272 -2.1874299049377441L0.86159515380859375 -2.1325228214263916L1.0082535743713379 -2.0672261714935303L1.1499999761581421 -1.9918583631515503L1.2861436605453491 -1.906786322593689L1.4160213470458984 -1.8124246597290039L1.539000391960144 -1.7092330455780029L1.6544815301895142 -1.5977141857147217L1.7619022130966187 -1.4784114360809326L1.86073899269104 -1.3519060611724854L1.9505106210708618 -1.2188142538070679L2.0307793617248535 -1.0797845125198364L2.1011545658111572 -0.93549424409866333L2.1612930297851562 -0.78664630651473999L2.2109017372131348 -0.63396590948104858L2.249739408493042 -0.4781968891620636L2.2776165008544922 -0.32009813189506531L2.2999999523162842 -5.6333752571939761E-16" stroke="#000000" stroke-width="0.013532316684867408" stroke-linecap="round" stroke-linejoin="round" fill="none"/>
        <path d="M-4.3174177408218384 7.7311231978237629L-4.2476612702012062 7.7286872752010822L-4.1782446354627609 7.721391249448061L-4.1095060557126999 7.7092708237469196L-4.0417803823947906 7.6923848874866962L-3.9753975868225098 7.6708158142864704L-3.9106810986995697 7.6446686275303364L-3.8479461669921875 7.6140707619488239L-3.7874984741210938 7.5791712887585163L-3.7296324968338013 7.5401402004063129L-3.6746301054954529 7.4971676357090473L-3.6227593421936035 7.4504629857838154L-3.5742729306221008 7.4002538211643696L-3.5294069647789001 7.3467846997082233L-3.4883801937103271 7.2903160937130451L-3.4513923525810242 7.2311231978237629L-3.418623685836792 7.1694943495094776L-3.3902338743209839 7.1057297773659229L-3.3663612008094788 7.0401402004063129L-3.3471220135688782 6.9730450995266438L-3.332610011100769 6.904771376401186L-3.3228958249092102 6.8356516622006893L-3.3180269002914429 6.7660226933658123L-3.3180269002914429 6.6962237022817135L-3.3228958249092102 6.6265947334468365L-3.332610011100769 6.5574750192463398L-3.3471220135688782 6.489201296120882L-3.3663612008094788 6.4221061952412128L-3.3902338743209839 6.3565166182816029L-3.418623685836792 6.2927520461380482L-3.4513923525810242 6.2311231978237629L-3.4883801937103271 6.1719303019344807L-3.5294069647789001 6.1154616959393024L-3.5742729306221008 6.0619925744831562L-3.6227593421936035 6.0117834098637104L-3.6746301054954529 5.9650787599384785L-3.7296324968338013 5.9221061952412128L-3.7874984741210938 5.8830751068890095L-3.8479461669921875 5.8481756336987019L-3.9106810986995697 5.8175777681171894L-3.9753975868225098 5.7914305813610554L-4.0417803823947906 5.7698615081608295L-4.1095060557126999 5.7529755719006062L-4.1782446354627609 5.7408551461994648L-4.3174177408218384 5.7311231978237629" stroke="#000000" stroke-width="0.013532316684867408" stroke-linecap="round" stroke-linejoin="round" fill="none"/>
        <path d="M-5.7999998092651328 -5.0000000000000009L-5.8116923332214316 -4.6651689112186441L-5.846713161468502 -4.3319690823555002L-5.9048911094665488 -4.0020238161087045L-5.985943889617916 -3.6769406795501718L-6.0894752502441367 -3.3583031892776498L-6.2149816513061484 -3.0476640462875375L-6.3618513107299766 -2.7465364933013925L-6.5293689727783164 -2.4563875198364267L-6.7167182922363242 -2.1786305904388437L-6.9229866027831992 -1.9146194458007821L-7.1471687316894492 -1.6656396389007577L-7.3881729602813682 -1.4329047203063974L-7.6448248386383018 -1.2175481319427499L-7.9158738613128623 -1.0206193923950204L-8.1999999046325645 -0.84307765960693448L-8.4958184719085654 -0.68578863143920987L-8.8018883228301963 -0.5495171546936044L-9.1167183876037559 -0.43492841720581144L-9.4387748003005942 -0.34258031845092862L-9.7664887070655784 -0.27292251586914151L-10.09826335906982 -0.22629451751709073L-10.432482412457462 -0.20292377471923917L-10.76751758754253 -0.20292377471923917L-11.101736640930172 -0.22629451751709073L-11.433511292934414 -0.27292251586914151L-11.761225199699398 -0.34258031845092862L-12.083281612396236 -0.43492841720581144L-12.398111677169796 -0.5495171546936044L-12.704181528091427 -0.68578863143920987L-13.000000095367428 -0.84307765960693448L-13.28412613868713 -1.0206193923950204L-13.55517516136169 -1.2175481319427499L-13.811827039718624 -1.4329047203063974L-14.052831268310543 -1.6656396389007577L-14.277013397216793 -1.9146194458007821L-14.483281707763668 -2.1786305904388437L-14.670631027221676 -2.4563875198364267L-14.838148689270016 -2.7465364933013925L-14.985018348693844 -3.0476640462875375L-15.110524749755855 -3.3583031892776498L-15.214056110382076 -3.6769406795501718L-15.295108890533443 -4.0020238161087045L-15.35328683853149 -4.3319690823555002L-15.388307666778561 -4.6651689112186441L-15.400000190734859 -5L-15.388307666778561 -5.3348310887813577L-15.35328683853149 -5.6680309176445016L-15.295108890533443 -5.9979761838912973L-15.214056110382076 -6.32305932044983L-15.110524749755855 -6.641696810722352L-14.985018348693844 -6.9523359537124643L-14.838148689270016 -7.2534635066986093L-14.670631027221676 -7.5436124801635751L-14.483281707763668 -7.8213694095611581L-14.277013397216793 -8.0853805541992188L-14.052831268310543 -8.3343603610992432L-13.811827039718624 -8.5670952796936035L-13.55517516136169 -8.782451868057251L-13.28412613868713 -8.9793806076049805L-13.000000095367428 -9.1569223403930664L-12.704181528091427 -9.314211368560791L-12.398111677169796 -9.4504828453063965L-12.083281612396236 -9.5650715827941895L-11.761225199699398 -9.6574196815490723L-11.433511292934414 -9.7270774841308594L-11.101736640930172 -9.7737054824829102L-10.76751758754253 -9.7970762252807617L-10.432482412457462 -9.7970762252807617L-10.09826335906982 -9.7737054824829102L-9.7664887070655784 -9.7270774841308594L-9.4387748003005942 -9.6574196815490723L-9.1167183876037559 -9.5650715827941895L-8.8018883228301963 -9.4504828453063965L-8.4958184719085654 -9.314211368560791L-8.1999999046325645 -9.1569223403930664L-7.9158738613128623 -8.9793806076049805L-7.6448248386383018 -8.782451868057251L-7.3881729602813682 -8.5670952796936035L-7.1471687316894492 -8.3343603610992432L-6.9229866027831992 -8.0853805541992188L-6.7167182922363242 -7.8213694095611581L-6.5293689727783164 -7.5436124801635751L-6.3618513107299766 -7.2534635066986093L-6.2149816513061484 -6.9523359537124643L-6.0894752502441367 -6.641696810722352L-5.985943889617916 -6.32305932044983L-5.9048911094665488 -5.9979761838912973L-5.846713161468502 -5.6680309176445016L-5.7999998092651328 -5.0000000000000018" stroke="#000000" stroke-width="0.013532316684867408" stroke-linecap="round" stroke-linejoin="round" fill="none"/>
        <path d="M-27.999999999999996 8.6500000000000092L-25 8.6500000000000092" stroke="#000000" stroke-width="0.013532316684867408" stroke-linecap="round" stroke-linejoin="round" fill="none"/>
        <path d="M26.937300205230734 20.545450316200192L25.977272272110007 20.856753454933102L24.997867345809958 21.100330458412106L24.003857374191305 21.274994955787594L23.000084757804892 21.379895315895016L21.991439842619023 21.414519415626462L20.982836604118368 21.378700361976559L19.979188919067404 21.272612677345212L18.98538637161257 21.096771345863278L18.006270647048972 20.852034674415524L17.062699794769308 20.545450316200192" stroke="#000000" stroke-width="0.013532316684867408" stroke-linecap="round" stroke-linejoin="round" fill="none"/>
        <path d="M15.400000190734859 -5.0000000000000009L15.388307666778561 -4.6651689112186441L15.35328683853149 -4.3319690823555002L15.295108890533443 -4.0020238161087045L15.214056110382076 -3.6769406795501718L15.110524749755855 -3.3583031892776498L14.985018348693844 -3.0476640462875375L14.838148689270016 -2.7465364933013925L14.670631027221676 -2.4563875198364267L14.483281707763668 -2.1786305904388437L14.277013397216793 -1.9146194458007821L14.052831268310543 -1.6656396389007577L13.811827039718624 -1.4329047203063974L13.55517516136169 -1.2175481319427499L13.28412613868713 -1.0206193923950204L13.000000095367428 -0.84307765960693448L12.704181528091427 -0.68578863143920987L12.398111677169796 -0.5495171546936044L12.083281612396236 -0.43492841720581144L11.761225199699398 -0.34258031845092862L11.433511292934414 -0.27292251586914151L11.101736640930172 -0.22629451751709073L10.76751758754253 -0.20292377471923917L10.432482412457462 -0.20292377471923917L10.09826335906982 -0.22629451751709073L9.7664887070655784 -0.27292251586914151L9.4387748003005942 -0.34258031845092862L9.1167183876037559 -0.43492841720581144L8.8018883228301963 -0.5495171546936044L8.4958184719085654 -0.68578863143920987L8.1999999046325645 -0.84307765960693448L7.9158738613128623 -1.0206193923950204L7.6448248386383018 -1.2175481319427499L7.3881729602813682 -1.4329047203063974L7.1471687316894492 -1.6656396389007577L6.9229866027831992 -1.9146194458007821L6.7167182922363242 -2.1786305904388437L6.5293689727783164 -2.4563875198364267L6.3618513107299766 -2.7465364933013925L6.2149816513061484 -3.0476640462875375L6.0894752502441367 -3.3583031892776498L5.985943889617916 -3.6769406795501718L5.9048911094665488 -4.0020238161087045L5.846713161468502 -4.3319690823555002L5.8116923332214316 -4.6651689112186441L5.7999998092651328 -5L5.8116923332214316 -5.3348310887813577L5.846713161468502 -5.6680309176445016L5.9048911094665488 -5.9979761838912973L5.985943889617916 -6.32305932044983L6.0894752502441367 -6.641696810722352L6.2149816513061484 -6.9523359537124643L6.3618513107299766 -7.2534635066986093L6.5293689727783164 -7.5436124801635751L6.7167182922363242 -7.8213694095611581L6.9229866027831992 -8.0853805541992188L7.1471687316894492 -8.3343603610992432L7.3881729602813682 -8.5670952796936035L7.6448248386383018 -8.782451868057251L7.9158738613128623 -8.9793806076049805L8.1999999046325645 -9.1569223403930664L8.4958184719085654 -9.314211368560791L8.8018883228301963 -9.4504828453063965L9.1167183876037559 -9.5650715827941895L9.4387748003005942 -9.6574196815490723L9.7664887070655784 -9.7270774841308594L10.09826335906982 -9.7737054824829102L10.432482412457462 -9.7970762252807617L10.76751758754253 -9.7970762252807617L11.101736640930172 -9.7737054824829102L11.433511292934414 -9.7270774841308594L11.761225199699398 -9.6574196815490723L12.083281612396236 -9.5650715827941895L12.398111677169796 -9.4504828453063965L12.704181528091427 -9.314211368560791L13.000000095367428 -9.1569223403930664L13.28412613868713 -8.9793806076049805L13.55517516136169 -8.782451868057251L13.811827039718624 -8.5670952796936035L14.052831268310543 -8.3343603610992432L14.277013397216793 -8.0853805541992188L14.483281707763668 -7.8213694095611581L14.670631027221676 -7.5436124801635751L14.838148689270016 -7.2534635066986093L14.985018348693844 -6.9523359537124643L15.110524749755855 -6.641696810722352L15.214056110382076 -6.32305932044983L15.295108890533443 -5.9979761838912973L15.35328683853149 -5.6680309176445016L15.400000190734859 -5.0000000000000018" stroke="#000000" stroke-width="0.013532316684867408" stroke-linecap="round" stroke-linejoin="round" fill="none"/>
        <path d="M-16 8.6499999999999915L-19.000000000000004 8.6499999999999915" stroke="#000000" stroke-width="0.013532316684867408" stroke-linecap="round" stroke-linejoin="round" fill="none"/>
        <path d="M-36.427891254425042 -13.162487936019897L-36.48217058181762 -13.683158826828002L-36.499997138977044 -14.206347643677145L-36.481285095214837 -14.729505550861358L-36.426124572753899 -15.250083756446838L-36.334784507751458 -15.765546035766601L-36.207710266113274 -16.273381185531616L-36.045521259307854 -16.771115016937255L-35.849006652832024 -17.256322574615478L-35.619124412536614 -17.726640176773071L-35.356994628906243 -18.179776144027709L-35.063894271850579 -18.613523197174072L-34.741250991821282 -19.025767993927001L-34.390636920928948 -19.414501857757568L-34.013760566711419 -19.777831745147704L-33.612457275390618 -20.113986682891845L-33.188683032989495 -20.42132921218872L-32.744501352310174 -20.698362064361572L-32.282077312469475 -20.943735790252685L-31.803663015365593 -21.156254482269286L-31.311589717864983 -21.334882926940917L-30.808254480361931 -21.478750896453857L-30.296109676361077 -21.587157917022704L-29.777650296688073 -21.659575176239013L-29.255402356386178 -21.695649814605712L-28.731910079717629 -21.695206832885741L-28.209723949432366 -21.658248138427734L-27.691387891769402 -21.584953022003173L-27.179427385330193 -21.47567958831787L-26.676336288452141 -21.33095998764038L-26.184566020965569 -21.151498508453368L-25.706512451171868 -20.938170146942138L-25.244504213333123 -20.692014408111572L-24.800792217254632 -20.414230060577392L-24.377538681030266 -20.106170368194579L-23.976805210113518 -19.769336891174316L-23.600543975830071 -19.40536994934082L-23.250588417053216 -19.016042900085449L-22.928643703460686 -18.603252601623534L-22.636277675628655 -18.16900987625122L-22.414738178253167 -17.789474201202392" stroke="#000000" stroke-width="0.013532316684867408" stroke-linecap="round" stroke-linejoin="round" fill="none"/>
        <path d="M24.595281564279126 11.800000000000001L24.589191638513135 11.974391180276871L24.570951663537549 12.147932755947114L24.540650569482374 12.319779205322266L24.498435699029493 12.489093410968781L24.444513045831251 12.655050384998322L24.379145108743238 12.816841650009156L24.302650653405713 12.973678874969483L24.215401851220655 13.124798107147218L24.117824040933179 13.269463109970093L24.010392629190015 13.406968998908997L23.89363106398158 13.536645936965943L23.768108092828321 13.657862114906312L23.634435259385633 13.770026850700379L23.493263804002332 13.872593927383424L23.345281564279126 13.965063619613648L23.19120939878993 14.046985197067261L23.031798028035688 14.117959547042847L22.867824040933179 14.177641201019288L22.700086318536329 14.225739288330079L22.529402010722684 14.262019443511964L22.356602721496152 14.286304759979249L22.18253030685954 14.2984769821167L22.008032821698713 14.2984769821167L21.833960407062101 14.286304759979249L21.661161117835569 14.262019443511964L21.490476810021924 14.225739288330079L21.322739087625074 14.177641201019288L21.158765100522565 14.117959547042847L20.999353729768323 14.046985197067261L20.845281564279126 13.965063619613648L20.697299324555921 13.872593927383424L20.55612786917262 13.770026850700379L20.422455035729932 13.657862114906312L20.296932064576673 13.536645936965943L20.180170499368238 13.406968998908997L20.072739087625074 13.269463109970093L19.975161277337598 13.124798107147218L19.88791247515254 12.973678874969483L19.811418019815015 12.816841650009156L19.746050082727002 12.655050384998322L19.69212742952876 12.489093410968781L19.649912559075879 12.319779205322266L19.619611465020704 12.147932755947114L19.601371490045118 11.974391180276871L19.595281564279126 11.800000000000001L19.601371490045118 11.62560881972313L19.619611465020704 11.452067244052888L19.649912559075879 11.280220794677735L19.69212742952876 11.11090658903122L19.746050082727002 10.944949615001679L19.811418019815015 10.783158349990845L19.88791247515254 10.626321125030518L19.975161277337598 10.475201892852784L20.072739087625074 10.330536890029908L20.180170499368238 10.193031001091004L20.296932064576673 10.063354063034058L20.422455035729932 9.9421378850936897L20.55612786917262 9.8299731492996223L20.697299324555921 9.7274060726165779L20.845281564279126 9.6349363803863532L20.999353729768323 9.55301480293274L21.158765100522565 9.482040452957154L21.322739087625074 9.4223587989807136L21.490476810021924 9.3742607116699226L21.661161117835569 9.3379805564880378L21.833960407062101 9.3136952400207527L22.008032821698713 9.3015230178833015L22.18253030685954 9.3015230178833015L22.356602721496152 9.3136952400207527L22.529402010722684 9.3379805564880378L22.700086318536329 9.3742607116699226L22.867824040933179 9.4223587989807136L23.031798028035688 9.482040452957154L23.19120939878993 9.55301480293274L23.345281564279126 9.6349363803863532L23.493263804002332 9.7274060726165779L23.634435259385633 9.8299731492996223L23.768108092828321 9.9421378850936897L23.89363106398158 10.063354063034058L24.010392629190015 10.193031001091004L24.117824040933179 10.330536890029908L24.215401851220655 10.475201892852784L24.302650653405713 10.626321125030518L24.379145108743238 10.783158349990845L24.444513045831251 10.944949615001679L24.498435699029493 11.11090658903122L24.540650569482374 11.280220794677735L24.570951663537549 11.452067244052888L24.595281564279126 11.800000000000001" stroke="#000000" stroke-width="0.013532316684867408" stroke-linecap="round" stroke-linejoin="round" fill="none"/>
        <path d="M0 -7.5538535602390766L6.535786423814046 -7.5538535602390766" stroke="#000000" stroke-width="0.013532316684867408" stroke-linecap="round" stroke-linejoin="round" fill="none"/>
        <path d="M-36.427891376107439 -13.162488696568294L-33.389433443364751 8.5908506652619483" stroke="#000000" stroke-width="0.013532316684867408" stroke-linecap="round" stroke-linejoin="round" fill="none"/>
        <path d="M12.003925628960133 16.287891194224358L15.218770232159233 16.287891194224358" stroke="#000000" stroke-width="0.013532316684867408" stroke-linecap="round" stroke-linejoin="round" fill="none"/>
        <path d="M-23.650000000000006 1.0000000000000027L-23.650000000000006 4.0000000000000018" stroke="#000000" stroke-width="0.013532316684867408" stroke-linecap="round" stroke-linejoin="round" fill="none"/>
        <path d="M33.5 7L33.471986770629883 7.8021994233131409L33.388082504272461 8.6004906892776489L33.248697280883789 9.3909845352172852L33.054509162902832 10.169829607009888L32.806465148925781 10.933231592178345L32.505772590637207 11.677471160888672L32.153897285461426 12.398922920227051L31.752552986145016 13.094071388244629L31.303695678710934 13.759530544281006L30.809511184692379 14.392057418823242L30.272407531738278 14.988571166992188L29.695002079010006 15.546165466308594L29.080106735229489 16.06212329864502L28.430718421936032 16.533931732177734L27.749999999999996 16.959292411804199L27.041268348693844 17.33613109588623L26.307975769042965 17.662613868713379L25.553695440292355 17.937150001525879L24.782101869583126 18.158400535583496L23.996954083442684 18.325288772583008L23.202077269554135 18.437002182006836L22.401344209909436 18.49299430847168L21.598655790090557 18.49299430847168L20.797922730445858 18.437002182006836L20.003045916557308 18.325288772583008L19.217898130416867 18.158400535583496L18.446304559707638 17.937150001525879L17.692024230957028 17.662613868713379L16.958731651306149 17.33613109588623L16.249999999999996 16.959292411804199L15.569281578063961 16.533931732177734L14.919893264770504 16.06212329864502L14.304997920989987 15.546165466308594L13.727592468261715 14.988571166992188L13.190488815307614 14.392057418823242L12.696304321289059 13.759530544281006L12.247447013854977 13.094071388244629L11.846102714538571 12.398922920227051L11.494227409362789 11.677471160888672L11.193534851074215 10.933231592178345L10.945490837097164 10.169829607009888L10.751302719116207 9.3909845352172852L10.611917495727536 8.6004906892776489L10.528013229370114 7.8021994233131409L10.499999999999996 7.0000000000000018L10.528013229370114 6.1978005766868591L10.611917495727536 5.3995093107223511L10.751302719116207 4.6090154647827148L10.945490837097164 3.8301703929901123L11.193534851074215 3.0667684078216553L11.494227409362789 2.3225288391113281L11.846102714538571 1.6010770797729492L12.247447013854977 0.90592861175537109L12.696304321289059 0.24046945571899414L13.190488815307614 -0.39205741882324219L13.727592468261715 -0.9885711669921875L14.304997920989987 -1.5461654663085938L14.919893264770504 -2.0621232986450195L15.569281578063961 -2.5339317321777344L16.249999999999996 -2.9592924118041992L16.958731651306149 -3.3361310958862305L17.692024230957028 -3.6626138687133789L18.446304559707638 -3.9371500015258789L19.217898130416867 -4.1584005355834961L20.003045916557308 -4.3252887725830078L20.797922730445858 -4.4370021820068359L21.598655790090557 -4.4929943084716797L22.401344209909436 -4.4929943084716797L23.202077269554135 -4.4370021820068359L23.996954083442684 -4.3252887725830078L24.782101869583126 -4.1584005355834961L25.553695440292355 -3.9371500015258789L26.307975769042965 -3.6626138687133789L27.041268348693844 -3.3361310958862305L27.749999999999996 -2.9592924118041992L28.430718421936032 -2.5339317321777344L29.080106735229489 -2.0621232986450195L29.695002079010006 -1.5461654663085938L30.272407531738278 -0.9885711669921875L30.809511184692379 -0.39205741882324219L31.303695678710934 0.24046945571899414L31.752552986145016 0.90592861175537109L32.153897285461426 1.6010770797729492L32.505772590637207 2.3225288391113281L32.806465148925781 3.0667684078216553L33.054509162902832 3.8301703929901123L33.248697280883789 4.6090154647827148L33.388082504272461 5.3995093107223511L33.5 6.9999999999999973" stroke="#000000" stroke-width="0.013532316684867408" stroke-linecap="round" stroke-linejoin="round" fill="none"/>
        <path d="M-16.607055853937918 17.668624881421671L-16.915771252586122 19.617777197240265" stroke="#000000" stroke-width="0.013532316684867408" stroke-linecap="round" stroke-linejoin="round" fill="none"/>
        <path d="M-22.414737626380305 -17.789473425251785L-15.39931570640139 -4.9189521728306556" stroke="#000000" stroke-width="0.013532316684867408" stroke-linecap="round" stroke-linejoin="round" fill="none"/>
        <path d="M4.3174177408218384 7.7311231978237629L4.2476612702012062 7.7286872752010822L4.1782446354627609 7.721391249448061L4.1095060557126999 7.7092708237469196L4.0417803823947906 7.6923848874866962L3.9753975868225098 7.6708158142864704L3.9106810986995697 7.6446686275303364L3.8479461669921875 7.6140707619488239L3.7874984741210938 7.5791712887585163L3.7296324968338013 7.5401402004063129L3.6746301054954529 7.4971676357090473L3.6227593421936035 7.4504629857838154L3.5742729306221008 7.4002538211643696L3.5294069647789001 7.3467846997082233L3.4883801937103271 7.2903160937130451L3.4513923525810242 7.2311231978237629L3.418623685836792 7.1694943495094776L3.3902338743209839 7.1057297773659229L3.3663612008094788 7.0401402004063129L3.3471220135688782 6.9730450995266438L3.332610011100769 6.904771376401186L3.3228958249092102 6.8356516622006893L3.3180269002914429 6.7660226933658123L3.3180269002914429 6.6962237022817135L3.3228958249092102 6.6265947334468365L3.332610011100769 6.5574750192463398L3.3471220135688782 6.489201296120882L3.3663612008094788 6.4221061952412128L3.3902338743209839 6.3565166182816029L3.418623685836792 6.2927520461380482L3.4513923525810242 6.2311231978237629L3.4883801937103271 6.1719303019344807L3.5294069647789001 6.1154616959393024L3.5742729306221008 6.0619925744831562L3.6227593421936035 6.0117834098637104L3.6746301054954529 5.9650787599384785L3.7296324968338013 5.9221061952412128L3.7874984741210938 5.8830751068890095L3.8479461669921875 5.8481756336987019L3.9106810986995697 5.8175777681171894L3.9753975868225098 5.7914305813610554L4.0417803823947906 5.7698615081608295L4.1095060557126999 5.7529755719006062L4.1782446354627609 5.7408551461994648L4.3174177408218384 5.7311231978237629" stroke="#000000" stroke-width="0.013532316684867408" stroke-linecap="round" stroke-linejoin="round" fill="none"/>
</g>
</g>
</svg>